<svg xmlns="http://www.w3.org/2000/svg" xmlns:xlink="http://www.w3.org/1999/xlink" width="500" zoomAndPan="magnify" viewBox="0 0 375 374.999991" height="500" preserveAspectRatio="xMidYMid meet" version="1.0"><defs><g/><clipPath id="cc69201921"><path d="M 0 0 L 370 0 L 370 295 L 0 295 Z M 0 0 " clip-rule="nonzero"/></clipPath><clipPath id="baa15ed8df"><path d="M -76.914062 294.714844 L -157.472656 94.832031 L 289.917969 -85.484375 L 370.476562 114.398438 Z M -76.914062 294.714844 " clip-rule="nonzero"/></clipPath><clipPath id="a3f4965c22"><path d="M -76.914062 294.714844 L -157.472656 94.832031 L 289.359375 -85.257812 L 369.921875 114.621094 Z M -76.914062 294.714844 " clip-rule="nonzero"/></clipPath><clipPath id="b24ee2f41b"><path d="M 36 320 L 335 320 L 335 343.515625 L 36 343.515625 Z M 36 320 " clip-rule="nonzero"/></clipPath></defs><rect x="-37.5" width="450" fill="#ffffff" y="-37.499999" height="449.999989" fill-opacity="1"/><rect x="-37.5" width="450" fill="#010644" y="-37.499999" height="449.999989" fill-opacity="1"/><g fill="#ffffff" fill-opacity="1"><g transform="translate(8.657221, 236.609257)"><g><path d="M 32.421875 1.5625 C 51.125 1.5625 60.9375 -8.578125 60.9375 -33.671875 L 60.9375 -50.65625 L 40.53125 -50.65625 L 40.53125 -34.59375 C 40.53125 -22.4375 39.125 -18.859375 32.421875 -18.859375 C 25.875 -18.859375 24.46875 -22.4375 24.46875 -34.59375 L 24.46875 -90.09375 C 24.46875 -102.25 25.875 -105.828125 32.421875 -105.828125 C 39.125 -105.828125 40.53125 -102.25 40.53125 -90.09375 L 40.53125 -74.03125 L 60.9375 -74.03125 L 60.9375 -91.015625 C 60.9375 -116.109375 51.125 -126.25 32.421875 -126.25 C 13.875 -126.25 4.046875 -116.109375 4.046875 -91.015625 L 4.046875 -33.671875 C 4.046875 -8.578125 13.875 1.5625 32.421875 1.5625 Z M 32.421875 1.5625 "/></g></g></g><g fill="#ffffff" fill-opacity="1"><g transform="translate(73.645935, 236.609257)"><g><path d="M 32.421875 1.5625 C 51.125 1.5625 60.9375 -8.578125 60.9375 -33.671875 L 60.9375 -91.015625 C 60.9375 -116.109375 51.125 -126.25 32.421875 -126.25 C 13.875 -126.25 4.046875 -116.109375 4.046875 -91.015625 L 4.046875 -33.671875 C 4.046875 -8.578125 13.875 1.5625 32.421875 1.5625 Z M 32.421875 -18.859375 C 25.875 -18.859375 24.46875 -22.4375 24.46875 -34.59375 L 24.46875 -90.09375 C 24.46875 -102.25 25.875 -105.828125 32.421875 -105.828125 C 39.125 -105.828125 40.53125 -102.25 40.53125 -90.09375 L 40.53125 -34.59375 C 40.53125 -22.4375 39.125 -18.859375 32.421875 -18.859375 Z M 32.421875 -18.859375 "/></g></g></g><g fill="#ffffff" fill-opacity="1"><g transform="translate(138.634649, 236.609257)"><g><path d="M 4.046875 0 L 24.46875 0 L 24.46875 -42.078125 L 30.078125 -42.390625 C 54.390625 -43.640625 61.25 -53.453125 61.25 -76.84375 L 61.25 -90.09375 C 61.25 -114.875 53.609375 -124.53125 26.96875 -124.6875 L 4.046875 -124.6875 Z M 24.46875 -62.5 L 24.46875 -104.265625 L 28.984375 -104.109375 C 38.96875 -103.796875 40.828125 -100.53125 40.828125 -90.09375 L 40.828125 -76.84375 C 40.828125 -66.390625 38.96875 -63.125 28.984375 -62.65625 Z M 24.46875 -62.5 "/></g></g></g><g fill="#ffffff" fill-opacity="1"><g transform="translate(203.935059, 236.609257)"><g><path d="M 4.046875 0 L 24.46875 0 L 24.46875 -124.6875 L 4.046875 -124.6875 Z M 4.046875 0 "/></g></g></g><g fill="#ffffff" fill-opacity="1"><g transform="translate(232.455281, 236.609257)"><g><path d="M 4.046875 0 L 24.46875 0 L 26.8125 -22.75 L 42.078125 -22.75 L 44.421875 0 L 64.84375 0 L 48.46875 -124.6875 L 20.421875 -124.6875 Z M 28.359375 -43.015625 L 34.4375 -99.90625 L 40.375 -43.015625 Z M 28.359375 -43.015625 "/></g></g></g><g fill="#ffffff" fill-opacity="1"><g transform="translate(301.340203, 236.609257)"><g><path d="M 32.421875 1.5625 C 51.125 1.5625 60.9375 -8.578125 60.9375 -33.671875 L 60.9375 -124.6875 L 40.53125 -124.6875 L 40.53125 -34.59375 C 40.53125 -22.4375 39.125 -18.859375 32.421875 -18.859375 C 25.875 -18.859375 24.46875 -22.4375 24.46875 -34.59375 L 24.46875 -124.6875 L 4.046875 -124.6875 L 4.046875 -33.671875 C 4.046875 -8.578125 13.875 1.5625 32.421875 1.5625 Z M 32.421875 1.5625 "/></g></g></g><g clip-path="url(#cc69201921)"><g clip-path="url(#baa15ed8df)"><g clip-path="url(#a3f4965c22)"><path fill="#010644" d="M -76.914062 294.714844 L -157.472656 94.832031 L 289.136719 -85.167969 L 369.695312 114.710938 Z M -76.914062 294.714844 " fill-opacity="1" fill-rule="nonzero"/></g></g></g><path stroke-linecap="butt" transform="matrix(1.071006, 0, 0, 1.071006, -174.56313, 81.313317)" fill="none" stroke-linejoin="miter" d="M 201.333549 146.455371 C 218.778442 146.455371 227.980505 137.005294 227.980505 113.556994 L 227.980505 97.709605 L 208.901635 97.709605 L 208.901635 112.703533 C 208.901635 124.039249 207.588617 127.376501 201.333549 127.376501 C 195.224371 127.376501 193.907707 124.039249 193.907707 112.703533 L 193.907707 60.901355 C 193.907707 49.532813 195.224371 46.191914 201.333549 46.191914 C 207.588617 46.191914 208.901635 49.532813 208.901635 60.901355 L 208.901635 75.85881 L 227.980505 75.85881 L 227.980505 60.011421 C 227.980505 36.563121 218.778442 27.113044 201.333549 27.113044 C 184.030899 27.113044 174.828837 36.563121 174.828837 60.011421 L 174.828837 113.556994 C 174.828837 137.005294 184.030899 146.455371 201.333549 146.455371 Z M 262.013183 146.455371 C 279.458076 146.455371 288.660139 137.005294 288.660139 113.556994 L 288.660139 60.011421 C 288.660139 36.563121 279.458076 27.113044 262.013183 27.113044 C 244.710533 27.113044 235.50847 36.563121 235.50847 60.011421 L 235.50847 113.556994 C 235.50847 137.005294 244.710533 146.455371 262.013183 146.455371 Z M 262.013183 127.376501 C 255.904005 127.376501 254.587341 124.039249 254.587341 112.703533 L 254.587341 60.901355 C 254.587341 49.532813 255.904005 46.191914 262.013183 46.191914 C 268.268251 46.191914 269.581268 49.532813 269.581268 60.901355 L 269.581268 112.703533 C 269.581268 124.039249 268.268251 127.376501 262.013183 127.376501 Z M 296.188104 145.00011 L 315.266975 145.00011 L 315.266975 105.704421 L 320.526338 105.419934 C 343.230595 104.249161 349.62426 95.079923 349.62426 73.2656 L 349.62426 60.901355 C 349.62426 37.733894 342.482905 28.710548 317.612169 28.568304 L 296.188104 28.568304 Z M 315.266975 86.658377 L 315.266975 47.647175 L 319.497808 47.789418 C 328.805642 48.073905 330.545389 51.130318 330.545389 60.901355 L 330.545389 73.2656 C 330.545389 83.000165 328.805642 86.056577 319.497808 86.483308 Z M 357.15952 145.00011 L 376.23839 145.00011 L 376.23839 28.568304 L 357.15952 28.568304 Z M 383.78824 145.00011 L 402.86711 145.00011 L 405.070061 123.754761 L 419.319946 123.754761 L 421.486424 145.00011 L 440.565294 145.00011 L 425.28688 28.568304 L 399.103127 28.568304 Z M 406.492496 104.85096 L 412.178591 51.699292 L 417.718794 104.85096 Z M 474.612561 146.455371 C 492.057455 146.455371 501.259517 137.005294 501.259517 113.556994 L 501.259517 28.568304 L 482.180647 28.568304 L 482.180647 112.703533 C 482.180647 124.039249 480.863983 127.376501 474.612561 127.376501 C 468.499737 127.376501 467.186719 124.039249 467.186719 112.703533 L 467.186719 28.568304 L 448.107849 28.568304 L 448.107849 113.556994 C 448.107849 137.005294 457.309912 146.455371 474.612561 146.455371 Z M 474.612561 146.455371 " stroke="#ffffff" stroke-width="1.546309" stroke-opacity="1" stroke-miterlimit="4"/><g clip-path="url(#b24ee2f41b)"><path fill="#ff3131" d="M 334.074219 322.164062 C 314.890625 319.597656 295.199219 320 275.742188 320.628906 C 256.511719 321.253906 237.289062 322.007812 218.089844 322.917969 C 198.914062 323.828125 179.75 324.917969 160.660156 326.40625 C 141.335938 327.914062 122.097656 329.808594 102.992188 332.214844 C 83.265625 334.695312 63.710938 337.90625 44.371094 341.398438 C 41.730469 341.875 39.078125 342.3125 36.449219 342.804688 C 35.820312 342.925781 37.5 343.445312 37.96875 343.363281 C 40.667969 342.90625 43.34375 342.378906 46.023438 341.867188 C 61.753906 339.054688 77.703125 336.839844 93.804688 335.019531 C 112.976562 332.855469 132.347656 331.214844 151.691406 329.84375 C 171.109375 328.464844 190.582031 327.40625 210.070312 326.546875 C 229.453125 325.691406 248.851562 325.035156 268.253906 324.429688 C 285.875 323.882812 303.605469 323.207031 321.179688 324.441406 C 320.054688 324.632812 318.929688 324.824219 317.804688 325.023438 C 311.058594 326.21875 304 326.886719 297.074219 327.496094 C 284.871094 328.578125 272.597656 329.371094 260.328125 330.09375 C 260.105469 330.105469 260.707031 330.636719 261.023438 330.621094 C 272.839844 330.0625 284.605469 329.207031 296.34375 328.183594 C 302.34375 327.660156 308.421875 327.0625 314.464844 326.828125 C 317.410156 326.714844 320.347656 326.585938 323.277344 326.375 C 324.898438 326.253906 326.515625 326.132812 328.136719 326 C 330.015625 325.851562 331.929688 325.878906 333.800781 325.679688 C 335.199219 325.53125 335.484375 322.355469 334.074219 322.164062 " fill-opacity="1" fill-rule="nonzero"/></g><g fill="#ffffff" fill-opacity="1"><g transform="translate(58.175479, 268.469558)"><g><path d="M 15.390625 -16.328125 C 15.578125 -16.71875 15.640625 -16.921875 15.25 -17.140625 C 13.171875 -18.40625 11.390625 -19.203125 8.609375 -19.203125 C 3.375 -19.203125 1.640625 -15.609375 1.640625 -13.28125 C 1.640625 -9.53125 5 -8.5 7.9375 -8.125 C 10.96875 -7.71875 12.765625 -7.203125 12.765625 -5.265625 C 12.765625 -3.265625 11.015625 -2.5625 8.671875 -2.5625 C 6.828125 -2.5625 4.8125 -3.046875 3.078125 -4.15625 C 2.9375 -4.265625 2.8125 -4.296875 2.734375 -4.296875 C 2.53125 -4.296875 2.4375 -4.15625 2.296875 -3.921875 L 1.453125 -2.5625 C 1.265625 -2.1875 1.21875 -2 1.625 -1.75 C 3.625 -0.375 6.015625 0.296875 8.9375 0.296875 C 13.578125 0.296875 15.9375 -2.4375 15.9375 -5.40625 C 15.9375 -9.390625 12.765625 -10.421875 9.484375 -10.828125 C 6.71875 -11.171875 4.8125 -11.578125 4.8125 -13.390625 C 4.8125 -14.71875 5.515625 -16.328125 8.890625 -16.328125 C 10.640625 -16.328125 12.0625 -15.90625 13.796875 -14.734375 C 13.9375 -14.65625 14.046875 -14.609375 14.125 -14.609375 C 14.3125 -14.609375 14.4375 -14.765625 14.578125 -15.015625 Z M 15.390625 -16.328125 "/></g></g></g><g fill="#ffffff" fill-opacity="1"><g transform="translate(75.447931, 268.469558)"><g><path d="M 14.125 -7.265625 C 14.125 -9.828125 15.171875 -11.28125 16.984375 -11.28125 C 18.765625 -11.28125 19.8125 -9.984375 19.8125 -7.125 L 19.8125 -0.5625 C 19.8125 -0.140625 19.953125 0 20.390625 0 L 22.328125 0 C 22.765625 0 22.890625 -0.140625 22.890625 -0.5625 L 22.890625 -7.828125 C 22.890625 -12.453125 20.6875 -14.046875 17.71875 -14.046875 C 15.46875 -14.046875 14.140625 -12.5625 13.421875 -11.359375 C 12.6875 -12.71875 11.3125 -14.046875 8.9375 -14.046875 C 6.703125 -14.046875 5.609375 -12.5625 4.828125 -11.421875 L 4.453125 -13.171875 C 4.265625 -13.578125 4.125 -13.75 3.8125 -13.75 L 2.8125 -13.75 C 2.40625 -13.75 2.234375 -13.609375 2.234375 -13.171875 L 2.234375 -0.5625 C 2.234375 -0.140625 2.40625 0 2.8125 0 L 4.75 0 C 5.21875 0 5.3125 -0.140625 5.3125 -0.5625 L 5.3125 -7.046875 C 5.3125 -9.71875 6.265625 -11.28125 8.203125 -11.28125 C 10.125 -11.28125 11.046875 -9.78125 11.046875 -7.125 L 11.046875 -0.5625 C 11.046875 -0.140625 11.171875 0 11.609375 0 L 13.546875 0 C 13.984375 0 14.125 -0.140625 14.125 -0.5625 Z M 14.125 -7.265625 "/></g></g></g><g fill="#ffffff" fill-opacity="1"><g transform="translate(100.115154, 268.469558)"><g><path d="M 13.171875 0 C 13.640625 0 13.75 -0.140625 13.75 -0.5625 L 13.75 -7.5 C 13.75 -11.765625 12.828125 -14.046875 7.671875 -14.046875 C 5.671875 -14.046875 3.265625 -13.609375 2.9375 -13.53125 C 2.53125 -13.421875 2.484375 -13.25 2.59375 -12.828125 L 2.921875 -11.53125 C 3.046875 -11.09375 3.109375 -10.984375 3.5625 -10.984375 C 4.5625 -11.171875 6 -11.390625 7.53125 -11.390625 C 10.015625 -11.390625 10.671875 -10.390625 10.671875 -7.859375 C 9.484375 -8.28125 7.828125 -8.5625 6.703125 -8.5625 C 3.78125 -8.5625 1.453125 -7.15625 1.453125 -4.21875 C 1.453125 -1.1875 3.75 0.296875 6.1875 0.296875 C 8.984375 0.296875 10.46875 -1 11.234375 -1.84375 L 11.421875 -0.5625 C 11.578125 -0.140625 11.71875 0 12.046875 0 Z M 7.421875 -6.375 C 8.609375 -6.375 9.5 -6.078125 10.671875 -5.671875 L 10.671875 -3.96875 C 9.859375 -2.9375 8.53125 -2.046875 7.15625 -2.046875 C 5.296875 -2.046875 4.515625 -3.15625 4.515625 -4.21875 C 4.515625 -5.453125 5.375 -6.375 7.421875 -6.375 Z M 7.421875 -6.375 "/></g></g></g><g fill="#ffffff" fill-opacity="1"><g transform="translate(115.606379, 268.469558)"><g><path d="M 10.3125 -14.046875 C 7 -14.046875 5.890625 -12.421875 5.125 -11.0625 L 4.5625 -13.171875 C 4.34375 -13.578125 4.234375 -13.75 3.890625 -13.75 L 2.921875 -13.75 C 2.484375 -13.75 2.34375 -13.609375 2.34375 -13.171875 L 2.34375 -0.5625 C 2.34375 -0.140625 2.484375 0 2.921875 0 L 4.859375 0 C 5.296875 0 5.421875 -0.140625 5.421875 -0.5625 L 5.421875 -6.78125 C 5.421875 -8.96875 6.796875 -10.984375 9.90625 -10.984375 C 10.34375 -10.984375 10.46875 -11.09375 10.5625 -11.53125 L 10.859375 -13.5 C 10.90625 -13.875 10.859375 -14.046875 10.3125 -14.046875 Z M 10.3125 -14.046875 "/></g></g></g><g fill="#ffffff" fill-opacity="1"><g transform="translate(126.914434, 268.469558)"><g><path d="M 9.875 -2.78125 C 9.3125 -2.515625 8.859375 -2.453125 8.265625 -2.453125 C 6.609375 -2.453125 5.78125 -3.421875 5.78125 -5.859375 L 5.78125 -11.28125 L 9.9375 -11.28125 C 10.375 -11.28125 10.5 -11.421875 10.5 -11.859375 L 10.5 -13.15625 C 10.5 -13.609375 10.375 -13.75 9.9375 -13.75 L 5.78125 -13.75 L 5.78125 -16.390625 C 5.78125 -16.828125 5.640625 -16.953125 5.21875 -16.953125 L 3.296875 -16.953125 C 2.828125 -16.953125 2.734375 -16.828125 2.734375 -16.390625 L 2.734375 -13.75 L 1.734375 -13.75 C 1.296875 -13.75 1.15625 -13.609375 1.15625 -13.171875 L 1.15625 -11.859375 C 1.15625 -11.421875 1.296875 -11.28125 1.734375 -11.28125 L 2.734375 -11.28125 L 2.734375 -5.671875 C 2.734375 -1.9375 4.375 0.296875 7.9375 0.296875 C 8.28125 0.296875 9.484375 0.296875 10.5625 -0.375 C 10.90625 -0.5625 10.9375 -0.703125 10.859375 -1.109375 L 10.609375 -2.453125 C 10.5625 -2.8125 10.46875 -2.9375 10.3125 -2.9375 C 10.234375 -2.9375 10.078125 -2.890625 9.875 -2.78125 Z M 9.875 -2.78125 "/></g></g></g><g fill="#ffffff" fill-opacity="1"><g transform="translate(138.843217, 268.469558)"><g/></g></g><g fill="#ffffff" fill-opacity="1"><g transform="translate(145.671231, 268.469558)"><g><path d="M 15.390625 -16.328125 C 15.578125 -16.71875 15.640625 -16.921875 15.25 -17.140625 C 13.171875 -18.40625 11.390625 -19.203125 8.609375 -19.203125 C 3.375 -19.203125 1.640625 -15.609375 1.640625 -13.28125 C 1.640625 -9.53125 5 -8.5 7.9375 -8.125 C 10.96875 -7.71875 12.765625 -7.203125 12.765625 -5.265625 C 12.765625 -3.265625 11.015625 -2.5625 8.671875 -2.5625 C 6.828125 -2.5625 4.8125 -3.046875 3.078125 -4.15625 C 2.9375 -4.265625 2.8125 -4.296875 2.734375 -4.296875 C 2.53125 -4.296875 2.4375 -4.15625 2.296875 -3.921875 L 1.453125 -2.5625 C 1.265625 -2.1875 1.21875 -2 1.625 -1.75 C 3.625 -0.375 6.015625 0.296875 8.9375 0.296875 C 13.578125 0.296875 15.9375 -2.4375 15.9375 -5.40625 C 15.9375 -9.390625 12.765625 -10.421875 9.484375 -10.828125 C 6.71875 -11.171875 4.8125 -11.578125 4.8125 -13.390625 C 4.8125 -14.71875 5.515625 -16.328125 8.890625 -16.328125 C 10.640625 -16.328125 12.0625 -15.90625 13.796875 -14.734375 C 13.9375 -14.65625 14.046875 -14.609375 14.125 -14.609375 C 14.3125 -14.609375 14.4375 -14.765625 14.578125 -15.015625 Z M 15.390625 -16.328125 "/></g></g></g><g fill="#ffffff" fill-opacity="1"><g transform="translate(162.943683, 268.469558)"><g><path d="M 8.3125 -14.046875 C 4.375 -14.046875 1.15625 -10.796875 1.15625 -6.859375 C 1.15625 -2.921875 4.375 0.296875 8.3125 0.296875 C 12.265625 0.296875 15.4375 -2.921875 15.4375 -6.859375 C 15.4375 -10.796875 12.265625 -14.046875 8.3125 -14.046875 Z M 8.3125 -11.28125 C 10.5625 -11.28125 12.390625 -9.375 12.390625 -6.859375 C 12.390625 -4.34375 10.5625 -2.40625 8.3125 -2.40625 C 6.046875 -2.40625 4.21875 -4.34375 4.21875 -6.859375 C 4.21875 -9.375 6.046875 -11.28125 8.3125 -11.28125 Z M 8.3125 -11.28125 "/></g></g></g><g fill="#ffffff" fill-opacity="1"><g transform="translate(179.541426, 268.469558)"><g><path d="M 2.40625 -0.5625 C 2.40625 -0.140625 2.53125 0 2.96875 0 L 4.90625 0 C 5.34375 0 5.484375 -0.140625 5.484375 -0.5625 L 5.484375 -19.359375 C 5.484375 -19.796875 5.375 -19.921875 4.90625 -19.921875 L 2.96875 -19.921875 C 2.53125 -19.921875 2.40625 -19.796875 2.40625 -19.359375 Z M 2.40625 -0.5625 "/></g></g></g><g fill="#ffffff" fill-opacity="1"><g transform="translate(187.421987, 268.469558)"><g><path d="M 7.015625 0.296875 C 9.3125 0.296875 10.5 -1.15625 11.3125 -2.265625 L 11.6875 -0.5625 C 11.90625 -0.15625 12.015625 0 12.359375 0 L 13.34375 0 C 13.765625 0 13.90625 -0.140625 13.90625 -0.5625 L 13.90625 -13.171875 C 13.90625 -13.609375 13.765625 -13.75 13.34375 -13.75 L 11.390625 -13.75 C 10.96875 -13.75 10.828125 -13.609375 10.828125 -13.171875 L 10.828125 -6.703125 C 10.828125 -4.125 9.796875 -2.453125 7.796875 -2.453125 C 5.90625 -2.453125 4.859375 -3.75 4.859375 -6.59375 L 4.859375 -13.171875 C 4.859375 -13.609375 4.71875 -13.75 4.296875 -13.75 L 2.34375 -13.75 C 1.921875 -13.75 1.78125 -13.609375 1.78125 -13.171875 L 1.78125 -5.9375 C 1.78125 -1.296875 4.046875 0.296875 7.015625 0.296875 Z M 7.015625 0.296875 "/></g></g></g><g fill="#ffffff" fill-opacity="1"><g transform="translate(203.668889, 268.469558)"><g><path d="M 9.875 -2.78125 C 9.3125 -2.515625 8.859375 -2.453125 8.265625 -2.453125 C 6.609375 -2.453125 5.78125 -3.421875 5.78125 -5.859375 L 5.78125 -11.28125 L 9.9375 -11.28125 C 10.375 -11.28125 10.5 -11.421875 10.5 -11.859375 L 10.5 -13.15625 C 10.5 -13.609375 10.375 -13.75 9.9375 -13.75 L 5.78125 -13.75 L 5.78125 -16.390625 C 5.78125 -16.828125 5.640625 -16.953125 5.21875 -16.953125 L 3.296875 -16.953125 C 2.828125 -16.953125 2.734375 -16.828125 2.734375 -16.390625 L 2.734375 -13.75 L 1.734375 -13.75 C 1.296875 -13.75 1.15625 -13.609375 1.15625 -13.171875 L 1.15625 -11.859375 C 1.15625 -11.421875 1.296875 -11.28125 1.734375 -11.28125 L 2.734375 -11.28125 L 2.734375 -5.671875 C 2.734375 -1.9375 4.375 0.296875 7.9375 0.296875 C 8.28125 0.296875 9.484375 0.296875 10.5625 -0.375 C 10.90625 -0.5625 10.9375 -0.703125 10.859375 -1.109375 L 10.609375 -2.453125 C 10.5625 -2.8125 10.46875 -2.9375 10.3125 -2.9375 C 10.234375 -2.9375 10.078125 -2.890625 9.875 -2.78125 Z M 9.875 -2.78125 "/></g></g></g><g fill="#ffffff" fill-opacity="1"><g transform="translate(215.597672, 268.469558)"><g><path d="M 3.34375 -13.75 C 2.921875 -13.75 2.78125 -13.609375 2.78125 -13.171875 L 2.78125 -0.5625 C 2.78125 -0.140625 2.921875 0 3.34375 0 L 5.296875 0 C 5.71875 0 5.859375 -0.140625 5.859375 -0.5625 L 5.859375 -13.171875 C 5.859375 -13.609375 5.71875 -13.75 5.296875 -13.75 Z M 2.40625 -18.03125 C 2.40625 -16.984375 3.234375 -16.171875 4.296875 -16.171875 C 5.3125 -16.171875 6.1875 -16.984375 6.1875 -18.03125 C 6.1875 -19.09375 5.3125 -19.953125 4.296875 -19.953125 C 3.234375 -19.953125 2.40625 -19.09375 2.40625 -18.03125 Z M 2.40625 -18.03125 "/></g></g></g><g fill="#ffffff" fill-opacity="1"><g transform="translate(224.179916, 268.469558)"><g><path d="M 8.3125 -14.046875 C 4.375 -14.046875 1.15625 -10.796875 1.15625 -6.859375 C 1.15625 -2.921875 4.375 0.296875 8.3125 0.296875 C 12.265625 0.296875 15.4375 -2.921875 15.4375 -6.859375 C 15.4375 -10.796875 12.265625 -14.046875 8.3125 -14.046875 Z M 8.3125 -11.28125 C 10.5625 -11.28125 12.390625 -9.375 12.390625 -6.859375 C 12.390625 -4.34375 10.5625 -2.40625 8.3125 -2.40625 C 6.046875 -2.40625 4.21875 -4.34375 4.21875 -6.859375 C 4.21875 -9.375 6.046875 -11.28125 8.3125 -11.28125 Z M 8.3125 -11.28125 "/></g></g></g><g fill="#ffffff" fill-opacity="1"><g transform="translate(240.777659, 268.469558)"><g><path d="M 2.34375 -0.5625 C 2.34375 -0.140625 2.484375 0 2.921875 0 L 4.859375 0 C 5.296875 0 5.421875 -0.140625 5.421875 -0.5625 L 5.421875 -7.046875 C 5.421875 -9.609375 6.453125 -11.28125 8.453125 -11.28125 C 10.34375 -11.28125 11.390625 -9.984375 11.390625 -7.125 L 11.390625 -0.5625 C 11.390625 -0.140625 11.53125 0 11.96875 0 L 13.90625 0 C 14.34375 0 14.46875 -0.140625 14.46875 -0.5625 L 14.46875 -7.796875 C 14.46875 -12.453125 12.203125 -14.046875 9.234375 -14.046875 C 6.9375 -14.046875 5.75 -12.5625 4.9375 -11.46875 L 4.5625 -13.171875 C 4.34375 -13.578125 4.234375 -13.75 3.890625 -13.75 L 2.921875 -13.75 C 2.484375 -13.75 2.34375 -13.609375 2.34375 -13.171875 Z M 2.34375 -0.5625 "/></g></g></g><g fill="#ffffff" fill-opacity="1"><g transform="translate(257.024572, 268.469558)"><g><path d="M 12.125 -11.6875 C 12.28125 -12.0625 12.390625 -12.265625 11.96875 -12.53125 C 9.984375 -13.6875 8.15625 -14.046875 6.75 -14.046875 C 3.484375 -14.046875 1.296875 -12.3125 1.296875 -9.671875 C 1.296875 -6.78125 3.75 -5.90625 6.5625 -5.53125 C 8.609375 -5.265625 9.796875 -4.828125 9.796875 -3.9375 C 9.796875 -2.890625 8.859375 -2.109375 6.828125 -2.109375 C 5.125 -2.109375 3.640625 -2.8125 2.640625 -3.515625 C 2.484375 -3.625 2.375 -3.671875 2.296875 -3.671875 C 2.109375 -3.671875 2.03125 -3.515625 1.890625 -3.265625 L 1.296875 -2.234375 C 1.109375 -1.859375 1.046875 -1.703125 1.4375 -1.4375 C 3.40625 -0.109375 5.59375 0.296875 7.015625 0.296875 C 10.5 0.296875 12.71875 -1.484375 12.71875 -4.109375 C 12.71875 -6.96875 10.265625 -7.859375 7.453125 -8.203125 C 5.375 -8.5 4.21875 -8.78125 4.21875 -9.828125 C 4.21875 -10.9375 5 -11.640625 6.9375 -11.640625 C 8.59375 -11.640625 9.609375 -11.15625 10.765625 -10.421875 C 10.90625 -10.34375 11.015625 -10.28125 11.125 -10.28125 C 11.28125 -10.28125 11.390625 -10.453125 11.53125 -10.6875 Z M 12.125 -11.6875 "/></g></g></g><g fill="#ffffff" fill-opacity="1"><g transform="translate(270.815548, 268.469558)"><g/></g></g><g fill="#ffffff" fill-opacity="1"><g transform="translate(277.643573, 268.469558)"><g><path d="M 10.3125 -17.359375 C 10.46875 -17.359375 10.5625 -17.5 10.609375 -17.84375 L 10.859375 -19.203125 C 10.9375 -19.609375 10.90625 -19.734375 10.5625 -19.921875 C 9.53125 -20.546875 8.421875 -20.546875 8.078125 -20.546875 C 4.515625 -20.546875 2.828125 -18.3125 2.828125 -14.53125 L 2.828125 -13.6875 L 1.1875 -13.6875 C 0.734375 -13.6875 0.59375 -13.546875 0.59375 -13.125 L 0.59375 -11.796875 C 0.59375 -11.359375 0.75 -11.234375 1.1875 -11.234375 L 2.828125 -11.234375 L 2.828125 -0.5625 C 2.828125 -0.140625 2.96875 0 3.421875 0 L 5.3125 0 C 5.78125 0 5.90625 -0.140625 5.90625 -0.5625 L 5.90625 -11.234375 L 10.046875 -11.234375 C 10.5 -11.234375 10.640625 -11.359375 10.640625 -11.796875 L 10.640625 -13.125 C 10.640625 -13.546875 10.5 -13.6875 10.046875 -13.6875 L 5.90625 -13.6875 L 5.90625 -14.390625 C 5.90625 -16.828125 6.75 -17.796875 8.390625 -17.796875 C 8.9375 -17.796875 9.375 -17.734375 9.875 -17.515625 C 10.09375 -17.421875 10.234375 -17.359375 10.3125 -17.359375 Z M 10.3125 -17.359375 "/></g></g></g><g fill="#ffffff" fill-opacity="1"><g transform="translate(288.897647, 268.469558)"><g><path d="M 8.3125 -14.046875 C 4.375 -14.046875 1.15625 -10.796875 1.15625 -6.859375 C 1.15625 -2.921875 4.375 0.296875 8.3125 0.296875 C 12.265625 0.296875 15.4375 -2.921875 15.4375 -6.859375 C 15.4375 -10.796875 12.265625 -14.046875 8.3125 -14.046875 Z M 8.3125 -11.28125 C 10.5625 -11.28125 12.390625 -9.375 12.390625 -6.859375 C 12.390625 -4.34375 10.5625 -2.40625 8.3125 -2.40625 C 6.046875 -2.40625 4.21875 -4.34375 4.21875 -6.859375 C 4.21875 -9.375 6.046875 -11.28125 8.3125 -11.28125 Z M 8.3125 -11.28125 "/></g></g></g><g fill="#ffffff" fill-opacity="1"><g transform="translate(305.495378, 268.469558)"><g><path d="M 10.3125 -14.046875 C 7 -14.046875 5.890625 -12.421875 5.125 -11.0625 L 4.5625 -13.171875 C 4.34375 -13.578125 4.234375 -13.75 3.890625 -13.75 L 2.921875 -13.75 C 2.484375 -13.75 2.34375 -13.609375 2.34375 -13.171875 L 2.34375 -0.5625 C 2.34375 -0.140625 2.484375 0 2.921875 0 L 4.859375 0 C 5.296875 0 5.421875 -0.140625 5.421875 -0.5625 L 5.421875 -6.78125 C 5.421875 -8.96875 6.796875 -10.984375 9.90625 -10.984375 C 10.34375 -10.984375 10.46875 -11.09375 10.5625 -11.53125 L 10.859375 -13.5 C 10.90625 -13.875 10.859375 -14.046875 10.3125 -14.046875 Z M 10.3125 -14.046875 "/></g></g></g><g fill="#ffffff" fill-opacity="1"><g transform="translate(71.288759, 305.969555)"><g><path d="M 15.640625 -18.328125 C 15.640625 -18.765625 15.5 -18.90625 15.03125 -18.90625 L 2.921875 -18.90625 C 2.484375 -18.90625 2.34375 -18.765625 2.34375 -18.328125 L 2.34375 -0.5625 C 2.34375 -0.140625 2.484375 0 2.921875 0 L 5.046875 0 C 5.484375 0 5.609375 -0.140625 5.609375 -0.5625 L 5.609375 -8.125 L 14.796875 -8.125 C 15.234375 -8.125 15.359375 -8.265625 15.359375 -8.6875 L 15.359375 -10.34375 C 15.359375 -10.765625 15.25 -10.90625 14.796875 -10.90625 L 5.609375 -10.90625 L 5.609375 -16.09375 L 15.03125 -16.09375 C 15.5 -16.09375 15.640625 -16.25 15.640625 -16.6875 Z M 15.640625 -18.328125 "/></g></g></g><g fill="#ffffff" fill-opacity="1"><g transform="translate(88.102406, 305.969555)"><g><path d="M 3.34375 -13.75 C 2.921875 -13.75 2.78125 -13.609375 2.78125 -13.171875 L 2.78125 -0.5625 C 2.78125 -0.140625 2.921875 0 3.34375 0 L 5.296875 0 C 5.71875 0 5.859375 -0.140625 5.859375 -0.5625 L 5.859375 -13.171875 C 5.859375 -13.609375 5.71875 -13.75 5.296875 -13.75 Z M 2.40625 -18.03125 C 2.40625 -16.984375 3.234375 -16.171875 4.296875 -16.171875 C 5.3125 -16.171875 6.1875 -16.984375 6.1875 -18.03125 C 6.1875 -19.09375 5.3125 -19.953125 4.296875 -19.953125 C 3.234375 -19.953125 2.40625 -19.09375 2.40625 -18.03125 Z M 2.40625 -18.03125 "/></g></g></g><g fill="#ffffff" fill-opacity="1"><g transform="translate(96.684651, 305.969555)"><g><path d="M 2.34375 -0.5625 C 2.34375 -0.140625 2.484375 0 2.921875 0 L 4.859375 0 C 5.296875 0 5.421875 -0.140625 5.421875 -0.5625 L 5.421875 -7.046875 C 5.421875 -9.609375 6.453125 -11.28125 8.453125 -11.28125 C 10.34375 -11.28125 11.390625 -9.984375 11.390625 -7.125 L 11.390625 -0.5625 C 11.390625 -0.140625 11.53125 0 11.96875 0 L 13.90625 0 C 14.34375 0 14.46875 -0.140625 14.46875 -0.5625 L 14.46875 -7.796875 C 14.46875 -12.453125 12.203125 -14.046875 9.234375 -14.046875 C 6.9375 -14.046875 5.75 -12.5625 4.9375 -11.46875 L 4.5625 -13.171875 C 4.34375 -13.578125 4.234375 -13.75 3.890625 -13.75 L 2.921875 -13.75 C 2.484375 -13.75 2.34375 -13.609375 2.34375 -13.171875 Z M 2.34375 -0.5625 "/></g></g></g><g fill="#ffffff" fill-opacity="1"><g transform="translate(112.931552, 305.969555)"><g><path d="M 13.171875 0 C 13.640625 0 13.75 -0.140625 13.75 -0.5625 L 13.75 -7.5 C 13.75 -11.765625 12.828125 -14.046875 7.671875 -14.046875 C 5.671875 -14.046875 3.265625 -13.609375 2.9375 -13.53125 C 2.53125 -13.421875 2.484375 -13.25 2.59375 -12.828125 L 2.921875 -11.53125 C 3.046875 -11.09375 3.109375 -10.984375 3.5625 -10.984375 C 4.5625 -11.171875 6 -11.390625 7.53125 -11.390625 C 10.015625 -11.390625 10.671875 -10.390625 10.671875 -7.859375 C 9.484375 -8.28125 7.828125 -8.5625 6.703125 -8.5625 C 3.78125 -8.5625 1.453125 -7.15625 1.453125 -4.21875 C 1.453125 -1.1875 3.75 0.296875 6.1875 0.296875 C 8.984375 0.296875 10.46875 -1 11.234375 -1.84375 L 11.421875 -0.5625 C 11.578125 -0.140625 11.71875 0 12.046875 0 Z M 7.421875 -6.375 C 8.609375 -6.375 9.5 -6.078125 10.671875 -5.671875 L 10.671875 -3.96875 C 9.859375 -2.9375 8.53125 -2.046875 7.15625 -2.046875 C 5.296875 -2.046875 4.515625 -3.15625 4.515625 -4.21875 C 4.515625 -5.453125 5.375 -6.375 7.421875 -6.375 Z M 7.421875 -6.375 "/></g></g></g><g fill="#ffffff" fill-opacity="1"><g transform="translate(128.422777, 305.969555)"><g><path d="M 2.34375 -0.5625 C 2.34375 -0.140625 2.484375 0 2.921875 0 L 4.859375 0 C 5.296875 0 5.421875 -0.140625 5.421875 -0.5625 L 5.421875 -7.046875 C 5.421875 -9.609375 6.453125 -11.28125 8.453125 -11.28125 C 10.34375 -11.28125 11.390625 -9.984375 11.390625 -7.125 L 11.390625 -0.5625 C 11.390625 -0.140625 11.53125 0 11.96875 0 L 13.90625 0 C 14.34375 0 14.46875 -0.140625 14.46875 -0.5625 L 14.46875 -7.796875 C 14.46875 -12.453125 12.203125 -14.046875 9.234375 -14.046875 C 6.9375 -14.046875 5.75 -12.5625 4.9375 -11.46875 L 4.5625 -13.171875 C 4.34375 -13.578125 4.234375 -13.75 3.890625 -13.75 L 2.921875 -13.75 C 2.484375 -13.75 2.34375 -13.609375 2.34375 -13.171875 Z M 2.34375 -0.5625 "/></g></g></g><g fill="#ffffff" fill-opacity="1"><g transform="translate(144.669679, 305.969555)"><g><path d="M 13.203125 -11.3125 C 13.46875 -11.640625 13.53125 -11.765625 13.28125 -12.015625 C 11.90625 -13.359375 10.15625 -14.046875 8.28125 -14.046875 C 4.34375 -14.046875 1.15625 -10.796875 1.15625 -6.859375 C 1.15625 -2.921875 4.34375 0.296875 8.28125 0.296875 C 10.15625 0.296875 11.90625 -0.375 13.28125 -1.734375 C 13.53125 -1.96875 13.46875 -2.109375 13.203125 -2.4375 L 12.203125 -3.515625 C 12.046875 -3.703125 11.90625 -3.8125 11.75 -3.8125 C 11.640625 -3.8125 11.53125 -3.75 11.390625 -3.625 C 10.53125 -2.78125 9.34375 -2.453125 8.28125 -2.453125 C 6.046875 -2.453125 4.21875 -4.34375 4.21875 -6.859375 C 4.21875 -9.375 6.046875 -11.28125 8.28125 -11.28125 C 9.34375 -11.28125 10.53125 -10.96875 11.390625 -10.125 C 11.53125 -9.984375 11.640625 -9.9375 11.75 -9.9375 C 11.90625 -9.9375 12.046875 -10.046875 12.203125 -10.234375 Z M 13.203125 -11.3125 "/></g></g></g><g fill="#ffffff" fill-opacity="1"><g transform="translate(159.054398, 305.969555)"><g><path d="M 3.34375 -13.75 C 2.921875 -13.75 2.78125 -13.609375 2.78125 -13.171875 L 2.78125 -0.5625 C 2.78125 -0.140625 2.921875 0 3.34375 0 L 5.296875 0 C 5.71875 0 5.859375 -0.140625 5.859375 -0.5625 L 5.859375 -13.171875 C 5.859375 -13.609375 5.71875 -13.75 5.296875 -13.75 Z M 2.40625 -18.03125 C 2.40625 -16.984375 3.234375 -16.171875 4.296875 -16.171875 C 5.3125 -16.171875 6.1875 -16.984375 6.1875 -18.03125 C 6.1875 -19.09375 5.3125 -19.953125 4.296875 -19.953125 C 3.234375 -19.953125 2.40625 -19.09375 2.40625 -18.03125 Z M 2.40625 -18.03125 "/></g></g></g><g fill="#ffffff" fill-opacity="1"><g transform="translate(167.636642, 305.969555)"><g><path d="M 13.171875 0 C 13.640625 0 13.75 -0.140625 13.75 -0.5625 L 13.75 -7.5 C 13.75 -11.765625 12.828125 -14.046875 7.671875 -14.046875 C 5.671875 -14.046875 3.265625 -13.609375 2.9375 -13.53125 C 2.53125 -13.421875 2.484375 -13.25 2.59375 -12.828125 L 2.921875 -11.53125 C 3.046875 -11.09375 3.109375 -10.984375 3.5625 -10.984375 C 4.5625 -11.171875 6 -11.390625 7.53125 -11.390625 C 10.015625 -11.390625 10.671875 -10.390625 10.671875 -7.859375 C 9.484375 -8.28125 7.828125 -8.5625 6.703125 -8.5625 C 3.78125 -8.5625 1.453125 -7.15625 1.453125 -4.21875 C 1.453125 -1.1875 3.75 0.296875 6.1875 0.296875 C 8.984375 0.296875 10.46875 -1 11.234375 -1.84375 L 11.421875 -0.5625 C 11.578125 -0.140625 11.71875 0 12.046875 0 Z M 7.421875 -6.375 C 8.609375 -6.375 9.5 -6.078125 10.671875 -5.671875 L 10.671875 -3.96875 C 9.859375 -2.9375 8.53125 -2.046875 7.15625 -2.046875 C 5.296875 -2.046875 4.515625 -3.15625 4.515625 -4.21875 C 4.515625 -5.453125 5.375 -6.375 7.421875 -6.375 Z M 7.421875 -6.375 "/></g></g></g><g fill="#ffffff" fill-opacity="1"><g transform="translate(183.127867, 305.969555)"><g><path d="M 2.40625 -0.5625 C 2.40625 -0.140625 2.53125 0 2.96875 0 L 4.90625 0 C 5.34375 0 5.484375 -0.140625 5.484375 -0.5625 L 5.484375 -19.359375 C 5.484375 -19.796875 5.375 -19.921875 4.90625 -19.921875 L 2.96875 -19.921875 C 2.53125 -19.921875 2.40625 -19.796875 2.40625 -19.359375 Z M 2.40625 -0.5625 "/></g></g></g><g fill="#ffffff" fill-opacity="1"><g transform="translate(191.008428, 305.969555)"><g/></g></g><g fill="#ffffff" fill-opacity="1"><g transform="translate(197.836442, 305.969555)"><g><path d="M 15.390625 -16.328125 C 15.578125 -16.71875 15.640625 -16.921875 15.25 -17.140625 C 13.171875 -18.40625 11.390625 -19.203125 8.609375 -19.203125 C 3.375 -19.203125 1.640625 -15.609375 1.640625 -13.28125 C 1.640625 -9.53125 5 -8.5 7.9375 -8.125 C 10.96875 -7.71875 12.765625 -7.203125 12.765625 -5.265625 C 12.765625 -3.265625 11.015625 -2.5625 8.671875 -2.5625 C 6.828125 -2.5625 4.8125 -3.046875 3.078125 -4.15625 C 2.9375 -4.265625 2.8125 -4.296875 2.734375 -4.296875 C 2.53125 -4.296875 2.4375 -4.15625 2.296875 -3.921875 L 1.453125 -2.5625 C 1.265625 -2.1875 1.21875 -2 1.625 -1.75 C 3.625 -0.375 6.015625 0.296875 8.9375 0.296875 C 13.578125 0.296875 15.9375 -2.4375 15.9375 -5.40625 C 15.9375 -9.390625 12.765625 -10.421875 9.484375 -10.828125 C 6.71875 -11.171875 4.8125 -11.578125 4.8125 -13.390625 C 4.8125 -14.71875 5.515625 -16.328125 8.890625 -16.328125 C 10.640625 -16.328125 12.0625 -15.90625 13.796875 -14.734375 C 13.9375 -14.65625 14.046875 -14.609375 14.125 -14.609375 C 14.3125 -14.609375 14.4375 -14.765625 14.578125 -15.015625 Z M 15.390625 -16.328125 "/></g></g></g><g fill="#ffffff" fill-opacity="1"><g transform="translate(215.108895, 305.969555)"><g><path d="M 7.015625 0.296875 C 9.3125 0.296875 10.5 -1.15625 11.3125 -2.265625 L 11.6875 -0.5625 C 11.90625 -0.15625 12.015625 0 12.359375 0 L 13.34375 0 C 13.765625 0 13.90625 -0.140625 13.90625 -0.5625 L 13.90625 -13.171875 C 13.90625 -13.609375 13.765625 -13.75 13.34375 -13.75 L 11.390625 -13.75 C 10.96875 -13.75 10.828125 -13.609375 10.828125 -13.171875 L 10.828125 -6.703125 C 10.828125 -4.125 9.796875 -2.453125 7.796875 -2.453125 C 5.90625 -2.453125 4.859375 -3.75 4.859375 -6.59375 L 4.859375 -13.171875 C 4.859375 -13.609375 4.71875 -13.75 4.296875 -13.75 L 2.34375 -13.75 C 1.921875 -13.75 1.78125 -13.609375 1.78125 -13.171875 L 1.78125 -5.9375 C 1.78125 -1.296875 4.046875 0.296875 7.015625 0.296875 Z M 7.015625 0.296875 "/></g></g></g><g fill="#ffffff" fill-opacity="1"><g transform="translate(231.355796, 305.969555)"><g><path d="M 13.203125 -11.3125 C 13.46875 -11.640625 13.53125 -11.765625 13.28125 -12.015625 C 11.90625 -13.359375 10.15625 -14.046875 8.28125 -14.046875 C 4.34375 -14.046875 1.15625 -10.796875 1.15625 -6.859375 C 1.15625 -2.921875 4.34375 0.296875 8.28125 0.296875 C 10.15625 0.296875 11.90625 -0.375 13.28125 -1.734375 C 13.53125 -1.96875 13.46875 -2.109375 13.203125 -2.4375 L 12.203125 -3.515625 C 12.046875 -3.703125 11.90625 -3.8125 11.75 -3.8125 C 11.640625 -3.8125 11.53125 -3.75 11.390625 -3.625 C 10.53125 -2.78125 9.34375 -2.453125 8.28125 -2.453125 C 6.046875 -2.453125 4.21875 -4.34375 4.21875 -6.859375 C 4.21875 -9.375 6.046875 -11.28125 8.28125 -11.28125 C 9.34375 -11.28125 10.53125 -10.96875 11.390625 -10.125 C 11.53125 -9.984375 11.640625 -9.9375 11.75 -9.9375 C 11.90625 -9.9375 12.046875 -10.046875 12.203125 -10.234375 Z M 13.203125 -11.3125 "/></g></g></g><g fill="#ffffff" fill-opacity="1"><g transform="translate(245.740515, 305.969555)"><g><path d="M 13.203125 -11.3125 C 13.46875 -11.640625 13.53125 -11.765625 13.28125 -12.015625 C 11.90625 -13.359375 10.15625 -14.046875 8.28125 -14.046875 C 4.34375 -14.046875 1.15625 -10.796875 1.15625 -6.859375 C 1.15625 -2.921875 4.34375 0.296875 8.28125 0.296875 C 10.15625 0.296875 11.90625 -0.375 13.28125 -1.734375 C 13.53125 -1.96875 13.46875 -2.109375 13.203125 -2.4375 L 12.203125 -3.515625 C 12.046875 -3.703125 11.90625 -3.8125 11.75 -3.8125 C 11.640625 -3.8125 11.53125 -3.75 11.390625 -3.625 C 10.53125 -2.78125 9.34375 -2.453125 8.28125 -2.453125 C 6.046875 -2.453125 4.21875 -4.34375 4.21875 -6.859375 C 4.21875 -9.375 6.046875 -11.28125 8.28125 -11.28125 C 9.34375 -11.28125 10.53125 -10.96875 11.390625 -10.125 C 11.53125 -9.984375 11.640625 -9.9375 11.75 -9.9375 C 11.90625 -9.9375 12.046875 -10.046875 12.203125 -10.234375 Z M 13.203125 -11.3125 "/></g></g></g><g fill="#ffffff" fill-opacity="1"><g transform="translate(260.125233, 305.969555)"><g><path d="M 13.015625 -3.328125 C 12.875 -3.484375 12.796875 -3.5625 12.6875 -3.5625 C 12.5625 -3.5625 12.421875 -3.484375 12.203125 -3.375 C 10.796875 -2.5625 9.453125 -2.34375 8.5 -2.34375 C 6.40625 -2.34375 4.640625 -3.921875 4.34375 -5.859375 L 14.4375 -5.859375 C 14.90625 -5.859375 14.984375 -6.015625 14.984375 -6.453125 C 14.984375 -10.5 12.6875 -14.046875 8.28125 -14.046875 C 4.34375 -14.046875 1.15625 -10.796875 1.15625 -6.859375 C 1.15625 -2.921875 4.34375 0.296875 8.421875 0.296875 C 10.390625 0.296875 12.640625 -0.375 13.875 -1.59375 C 14.125 -1.859375 14.0625 -2.03125 13.796875 -2.34375 Z M 8.203125 -11.5 C 10.46875 -11.5 11.65625 -9.640625 11.859375 -7.890625 L 4.40625 -7.890625 C 4.59375 -9.640625 5.90625 -11.5 8.203125 -11.5 Z M 8.203125 -11.5 "/></g></g></g><g fill="#ffffff" fill-opacity="1"><g transform="translate(276.102237, 305.969555)"><g><path d="M 12.125 -11.6875 C 12.28125 -12.0625 12.390625 -12.265625 11.96875 -12.53125 C 9.984375 -13.6875 8.15625 -14.046875 6.75 -14.046875 C 3.484375 -14.046875 1.296875 -12.3125 1.296875 -9.671875 C 1.296875 -6.78125 3.75 -5.90625 6.5625 -5.53125 C 8.609375 -5.265625 9.796875 -4.828125 9.796875 -3.9375 C 9.796875 -2.890625 8.859375 -2.109375 6.828125 -2.109375 C 5.125 -2.109375 3.640625 -2.8125 2.640625 -3.515625 C 2.484375 -3.625 2.375 -3.671875 2.296875 -3.671875 C 2.109375 -3.671875 2.03125 -3.515625 1.890625 -3.265625 L 1.296875 -2.234375 C 1.109375 -1.859375 1.046875 -1.703125 1.4375 -1.4375 C 3.40625 -0.109375 5.59375 0.296875 7.015625 0.296875 C 10.5 0.296875 12.71875 -1.484375 12.71875 -4.109375 C 12.71875 -6.96875 10.265625 -7.859375 7.453125 -8.203125 C 5.375 -8.5 4.21875 -8.78125 4.21875 -9.828125 C 4.21875 -10.9375 5 -11.640625 6.9375 -11.640625 C 8.59375 -11.640625 9.609375 -11.15625 10.765625 -10.421875 C 10.90625 -10.34375 11.015625 -10.28125 11.125 -10.28125 C 11.28125 -10.28125 11.390625 -10.453125 11.53125 -10.6875 Z M 12.125 -11.6875 "/></g></g></g><g fill="#ffffff" fill-opacity="1"><g transform="translate(289.893214, 305.969555)"><g><path d="M 12.125 -11.6875 C 12.28125 -12.0625 12.390625 -12.265625 11.96875 -12.53125 C 9.984375 -13.6875 8.15625 -14.046875 6.75 -14.046875 C 3.484375 -14.046875 1.296875 -12.3125 1.296875 -9.671875 C 1.296875 -6.78125 3.75 -5.90625 6.5625 -5.53125 C 8.609375 -5.265625 9.796875 -4.828125 9.796875 -3.9375 C 9.796875 -2.890625 8.859375 -2.109375 6.828125 -2.109375 C 5.125 -2.109375 3.640625 -2.8125 2.640625 -3.515625 C 2.484375 -3.625 2.375 -3.671875 2.296875 -3.671875 C 2.109375 -3.671875 2.03125 -3.515625 1.890625 -3.265625 L 1.296875 -2.234375 C 1.109375 -1.859375 1.046875 -1.703125 1.4375 -1.4375 C 3.40625 -0.109375 5.59375 0.296875 7.015625 0.296875 C 10.5 0.296875 12.71875 -1.484375 12.71875 -4.109375 C 12.71875 -6.96875 10.265625 -7.859375 7.453125 -8.203125 C 5.375 -8.5 4.21875 -8.78125 4.21875 -9.828125 C 4.21875 -10.9375 5 -11.640625 6.9375 -11.640625 C 8.59375 -11.640625 9.609375 -11.15625 10.765625 -10.421875 C 10.90625 -10.34375 11.015625 -10.28125 11.125 -10.28125 C 11.28125 -10.28125 11.390625 -10.453125 11.53125 -10.6875 Z M 12.125 -11.6875 "/></g></g></g></svg>