<svg xmlns="http://www.w3.org/2000/svg" xmlns:xlink="http://www.w3.org/1999/xlink" width="500" zoomAndPan="magnify" viewBox="0 0 375 374.999991" height="500" preserveAspectRatio="xMidYMid meet" version="1.0"><defs><g/><clipPath id="258e962c21"><path d="M 0 0 L 340 0 L 340 295 L 0 295 Z M 0 0 " clip-rule="nonzero"/></clipPath><clipPath id="c74bdb9cb9"><path d="M -48.59375 294.722656 L -118.683594 120.816406 L 270.566406 -36.066406 L 340.65625 137.839844 Z M -48.59375 294.722656 " clip-rule="nonzero"/></clipPath><clipPath id="f5e28fd0ac"><path d="M -48.59375 294.722656 L -118.683594 120.816406 L 270.082031 -35.871094 L 340.171875 138.035156 Z M -48.59375 294.722656 " clip-rule="nonzero"/></clipPath><clipPath id="c282fa5a1b"><path d="M 56 251.179688 L 307 251.179688 L 307 254.929688 L 56 254.929688 Z M 56 251.179688 " clip-rule="nonzero"/></clipPath></defs><rect x="-37.5" width="450" fill="#ffffff" y="-37.499999" height="449.999989" fill-opacity="1"/><rect x="-37.5" width="450" fill="#030842" y="-37.499999" height="449.999989" fill-opacity="1"/><g fill="#ffffff" fill-opacity="1"><g transform="translate(25.847031, 244.170615)"><g><path d="M 28.203125 1.359375 C 44.484375 1.359375 53.015625 -7.453125 53.015625 -29.296875 L 53.015625 -44.078125 L 35.265625 -44.078125 L 35.265625 -30.109375 C 35.265625 -19.53125 34.03125 -16.40625 28.203125 -16.40625 C 22.515625 -16.40625 21.296875 -19.53125 21.296875 -30.109375 L 21.296875 -78.375 C 21.296875 -88.953125 22.515625 -92.078125 28.203125 -92.078125 C 34.03125 -92.078125 35.265625 -88.953125 35.265625 -78.375 L 35.265625 -64.421875 L 53.015625 -64.421875 L 53.015625 -79.203125 C 53.015625 -101.03125 44.484375 -109.84375 28.203125 -109.84375 C 12.0625 -109.84375 3.53125 -101.03125 3.53125 -79.203125 L 3.53125 -29.296875 C 3.53125 -7.453125 12.0625 1.359375 28.203125 1.359375 Z M 28.203125 1.359375 "/></g></g></g><g fill="#ffffff" fill-opacity="1"><g transform="translate(82.39031, 244.170615)"><g><path d="M 28.203125 1.359375 C 44.484375 1.359375 53.015625 -7.453125 53.015625 -29.296875 L 53.015625 -79.203125 C 53.015625 -101.03125 44.484375 -109.84375 28.203125 -109.84375 C 12.0625 -109.84375 3.53125 -101.03125 3.53125 -79.203125 L 3.53125 -29.296875 C 3.53125 -7.453125 12.0625 1.359375 28.203125 1.359375 Z M 28.203125 -16.40625 C 22.515625 -16.40625 21.296875 -19.53125 21.296875 -30.109375 L 21.296875 -78.375 C 21.296875 -88.953125 22.515625 -92.078125 28.203125 -92.078125 C 34.03125 -92.078125 35.265625 -88.953125 35.265625 -78.375 L 35.265625 -30.109375 C 35.265625 -19.53125 34.03125 -16.40625 28.203125 -16.40625 Z M 28.203125 -16.40625 "/></g></g></g><g fill="#ffffff" fill-opacity="1"><g transform="translate(138.93359, 244.170615)"><g><path d="M 3.53125 0 L 21.296875 0 L 21.296875 -36.609375 L 26.171875 -36.890625 C 47.328125 -37.96875 53.296875 -46.515625 53.296875 -66.859375 L 53.296875 -78.375 C 53.296875 -99.9375 46.65625 -108.359375 23.453125 -108.484375 L 3.53125 -108.484375 Z M 21.296875 -54.375 L 21.296875 -90.71875 L 25.21875 -90.59375 C 33.90625 -90.3125 35.53125 -87.46875 35.53125 -78.375 L 35.53125 -66.859375 C 35.53125 -57.765625 33.90625 -54.921875 25.21875 -54.515625 Z M 21.296875 -54.375 "/></g></g></g><g fill="#ffffff" fill-opacity="1"><g transform="translate(195.74806, 244.170615)"><g><path d="M 3.53125 0 L 21.296875 0 L 21.296875 -108.484375 L 3.53125 -108.484375 Z M 3.53125 0 "/></g></g></g><g fill="#ffffff" fill-opacity="1"><g transform="translate(220.562012, 244.170615)"><g><path d="M 3.53125 0 L 21.296875 0 L 23.328125 -19.796875 L 36.609375 -19.796875 L 38.65625 0 L 56.40625 0 L 42.171875 -108.484375 L 17.765625 -108.484375 Z M 24.6875 -37.421875 L 29.96875 -86.921875 L 35.125 -37.421875 Z M 24.6875 -37.421875 "/></g></g></g><g fill="#ffffff" fill-opacity="1"><g transform="translate(280.495178, 244.170615)"><g><path d="M 28.203125 1.359375 C 44.484375 1.359375 53.015625 -7.453125 53.015625 -29.296875 L 53.015625 -108.484375 L 35.265625 -108.484375 L 35.265625 -30.109375 C 35.265625 -19.53125 34.03125 -16.40625 28.203125 -16.40625 C 22.515625 -16.40625 21.296875 -19.53125 21.296875 -30.109375 L 21.296875 -108.484375 L 3.53125 -108.484375 L 3.53125 -29.296875 C 3.53125 -7.453125 12.0625 1.359375 28.203125 1.359375 Z M 28.203125 1.359375 "/></g></g></g><g clip-path="url(#258e962c21)"><g clip-path="url(#c74bdb9cb9)"><g clip-path="url(#f5e28fd0ac)"><path fill="#030842" d="M -48.59375 294.722656 L -118.683594 120.816406 L 269.886719 -35.792969 L 339.976562 138.113281 Z M -48.59375 294.722656 " fill-opacity="1" fill-rule="nonzero"/></g></g></g><path stroke-linecap="butt" transform="matrix(0.931827, 0, 0, 0.931827, -133.5634, 109.055743)" fill="none" stroke-linejoin="miter" d="M 201.331823 146.455989 C 218.779072 146.455989 227.980589 137.007142 227.980589 113.556899 L 227.980589 97.711007 L 208.902638 97.711007 L 208.902638 112.701724 C 208.902638 124.036986 207.586339 127.378038 201.331823 127.378038 C 195.224029 127.378038 193.90773 124.036986 193.90773 112.701724 L 193.90773 60.900749 C 193.90773 49.531951 195.224029 46.190899 201.331823 46.190899 C 207.586339 46.190899 208.902638 49.531951 208.902638 60.900749 L 208.902638 75.85793 L 227.980589 75.85793 L 227.980589 60.012038 C 227.980589 36.561795 218.779072 27.112948 201.331823 27.112948 C 184.031295 27.112948 174.829779 36.561795 174.829779 60.012038 L 174.829779 113.556899 C 174.829779 137.007142 184.031295 146.455989 201.331823 146.455989 Z M 262.01572 146.455989 C 279.458777 146.455989 288.660293 137.007142 288.660293 113.556899 L 288.660293 60.012038 C 288.660293 36.561795 279.458777 27.112948 262.01572 27.112948 C 244.711 27.112948 235.509483 36.561795 235.509483 60.012038 L 235.509483 113.556899 C 235.509483 137.007142 244.711 146.455989 262.01572 146.455989 Z M 262.01572 127.378038 C 255.903733 127.378038 254.587434 124.036986 254.587434 112.701724 L 254.587434 60.900749 C 254.587434 49.531951 255.903733 46.190899 262.01572 46.190899 C 268.266044 46.190899 269.582343 49.531951 269.582343 60.900749 L 269.582343 112.701724 C 269.582343 124.036986 268.266044 127.378038 262.01572 127.378038 Z M 296.189188 145.001353 L 315.267139 145.001353 L 315.267139 105.705218 L 320.528142 105.42016 C 343.232203 104.24639 349.625056 95.082602 349.625056 73.267252 L 349.625056 60.900749 C 349.625056 37.735565 342.486021 28.710114 317.614678 28.567585 L 296.189188 28.567585 Z M 315.267139 86.660804 L 315.267139 47.649727 L 319.496902 47.792256 C 328.803219 48.073123 330.547106 51.129116 330.547106 60.900749 L 330.547106 73.267252 C 330.547106 83.001157 328.803219 86.057151 319.496902 86.480546 Z M 357.158143 145.001353 L 376.240286 145.001353 L 376.240286 28.567585 L 357.158143 28.567585 Z M 383.79014 145.001353 L 402.868091 145.001353 L 405.073101 123.751928 L 419.317636 123.751928 L 421.484918 145.001353 L 440.56706 145.001353 L 425.287093 28.567585 L 399.103644 28.567585 Z M 406.494201 104.850043 L 412.1786 51.699233 L 417.72047 104.850043 Z M 474.610575 146.455989 C 492.057825 146.455989 501.259341 137.007142 501.259341 113.556899 L 501.259341 28.567585 L 482.18139 28.567585 L 482.18139 112.701724 C 482.18139 124.036986 480.865091 127.378038 474.610575 127.378038 C 468.502781 127.378038 467.186482 124.036986 467.186482 112.701724 L 467.186482 28.567585 L 448.108531 28.567585 L 448.108531 113.556899 C 448.108531 137.007142 457.310048 146.455989 474.610575 146.455989 Z M 474.610575 146.455989 " stroke="#ffffff" stroke-width="1.546309" stroke-opacity="1" stroke-miterlimit="4"/><g clip-path="url(#c282fa5a1b)"><path fill="#ffffff" d="M 306.179688 253.238281 C 306.179688 254.371094 305.261719 255.292969 304.125 255.292969 L 58.769531 255.292969 C 57.636719 255.292969 56.714844 254.371094 56.714844 253.238281 C 56.714844 252.101562 57.636719 251.179688 58.769531 251.179688 L 304.125 251.179688 C 305.261719 251.179688 306.179688 252.101562 306.179688 253.238281 Z M 306.179688 253.238281 " fill-opacity="1" fill-rule="nonzero"/></g><g fill="#ffffff" fill-opacity="1"><g transform="translate(98.189631, 279.339398)"><g><path d="M 1.1875 -0.328125 L 1.1875 0 L 5.109375 0 L 5.109375 -0.328125 L 4.796875 -0.328125 C 4.375 -0.359375 3.578125 -0.484375 3.578125 -0.90625 L 3.578125 -15.953125 C 3.578125 -16.359375 4.375 -16.484375 4.796875 -16.53125 L 5.109375 -16.53125 L 5.109375 -16.859375 L 1.1875 -16.859375 L 1.1875 -16.53125 L 1.484375 -16.53125 C 1.9375 -16.484375 2.703125 -16.359375 2.71875 -15.953125 L 2.71875 -0.90625 C 2.71875 -0.484375 1.9375 -0.359375 1.484375 -0.328125 Z M 1.1875 -0.328125 "/></g></g></g><g fill="#ffffff" fill-opacity="1"><g transform="translate(104.497213, 279.339398)"><g><path d="M 1.1875 -0.328125 L 1.1875 0 L 4.59375 0 L 4.59375 -0.328125 C 3.75 -0.328125 3.0625 -0.484375 3.0625 -0.90625 L 3.0625 -16.109375 L 13.265625 0 L 13.5625 0 L 13.5625 -15.984375 C 13.5625 -16.390625 14.265625 -16.5625 15.09375 -16.5625 L 15.09375 -16.890625 L 11.703125 -16.890625 L 11.703125 -16.5625 C 12.546875 -16.5625 13.234375 -16.390625 13.234375 -15.984375 L 13.234375 -1.703125 L 3.5625 -16.890625 L 1.1875 -16.890625 L 1.1875 -16.5625 C 2.03125 -16.5625 2.703125 -16.390625 2.703125 -15.984375 L 2.703125 -0.90625 C 2.703125 -0.484375 2.03125 -0.328125 1.1875 -0.328125 Z M 1.1875 -0.328125 "/></g></g></g><g fill="#ffffff" fill-opacity="1"><g transform="translate(120.791751, 279.339398)"><g><path d="M 8.3125 0.3125 C 9.203125 0.3125 10.078125 0.125 10.921875 -0.28125 L 10.890625 -0.28125 C 12.46875 -0.953125 13.8125 -1.84375 13.8125 -1.84375 L 14.265625 -3.703125 L 13.953125 -3.84375 C 12.703125 -1.484375 10.578125 -0.046875 8.3125 -0.046875 C 8.140625 -0.046875 7.984375 -0.046875 7.8125 -0.078125 C 4.609375 -0.53125 2.046875 -4.28125 2.046875 -8.359375 C 2.046875 -12.65625 4.84375 -16.671875 8.3125 -16.671875 C 10.4375 -16.671875 12.703125 -15.53125 13.71875 -13.28125 L 14.03125 -13.46875 L 14 -13.46875 L 13.640625 -15.046875 C 13.640625 -15.046875 12.46875 -15.8125 11.140625 -16.40625 L 11.1875 -16.359375 C 10.265625 -16.8125 9.296875 -17.03125 8.3125 -17.03125 C 4.375 -17.03125 1.1875 -13.140625 1.1875 -8.359375 C 1.1875 -3.578125 4.375 0.3125 8.3125 0.3125 Z M 8.3125 0.3125 "/></g></g></g><g fill="#ffffff" fill-opacity="1"><g transform="translate(136.250068, 279.339398)"><g><path d="M 8.3125 0.359375 L 8.53125 0.359375 C 12.515625 0.359375 15.640625 -3.78125 15.640625 -8.3125 C 15.640625 -12.828125 12.46875 -16.984375 8.53125 -16.984375 L 8.3125 -16.984375 C 4.390625 -16.984375 1.1875 -12.90625 1.1875 -8.3125 C 1.1875 -3.796875 4.390625 0.359375 8.3125 0.359375 Z M 6.28125 -0.484375 C 3.828125 -1.671875 2.046875 -4.890625 2.046875 -8.3125 C 2.046875 -12.0625 4.203125 -15.546875 7.03125 -16.4375 C 7.484375 -16.578125 7.953125 -16.625 8.40625 -16.625 C 8.890625 -16.625 9.34375 -16.5625 9.8125 -16.4375 C 12.640625 -15.59375 14.765625 -12.0625 14.765625 -8.3125 C 14.765625 -4.890625 13.015625 -1.671875 10.5625 -0.484375 C 9.109375 0.140625 7.734375 0.140625 6.28125 -0.484375 Z M 6.28125 -0.484375 "/></g></g></g><g fill="#ffffff" fill-opacity="1"><g transform="translate(153.094127, 279.339398)"><g><path d="M 0.578125 -0.359375 L 0.578125 0 L 4.484375 0 L 4.484375 -0.359375 C 3.65625 -0.359375 2.96875 -0.5 2.96875 -0.9375 L 2.96875 -7.59375 L 6.234375 -7.59375 C 7.234375 -7.59375 8.546875 -6.140625 8.859375 -4.953125 C 9.40625 -2.890625 9.609375 -1.390625 11.390625 0 L 12.78125 0 L 12.78125 -0.359375 C 10.96875 -0.359375 10.203125 -3.21875 9.84375 -4.734375 C 9.40625 -6.5 8.40625 -7.078125 7.1875 -7.671875 C 9.5625 -8.046875 11.375 -9.8125 11.375 -12.328125 C 11.375 -15.171875 9.046875 -16.890625 6.21875 -16.890625 L 0.578125 -16.890625 L 0.578125 -16.53125 C 1.40625 -16.53125 2.109375 -16.390625 2.109375 -15.984375 L 2.109375 -0.9375 C 2.109375 -0.5 1.40625 -0.359375 0.578125 -0.359375 Z M 6.21875 -7.9375 L 2.96875 -7.9375 L 2.96875 -15.953125 C 2.96875 -16.390625 3.75 -16.515625 4.1875 -16.53125 L 6.21875 -16.53125 C 8.578125 -16.53125 10.515625 -14.6875 10.515625 -12.328125 C 10.515625 -9.9375 8.578125 -7.9375 6.21875 -7.9375 Z M 6.21875 -7.9375 "/></g></g></g><g fill="#ffffff" fill-opacity="1"><g transform="translate(167.429522, 279.339398)"><g><path d="M 1.1875 -0.328125 L 1.1875 0 L 5.109375 0 L 5.109375 -0.328125 L 4.796875 -0.328125 C 4.375 -0.375 3.578125 -0.5 3.578125 -0.90625 L 3.578125 -7.046875 L 6.828125 -7.046875 C 9.671875 -7.046875 12 -9.125 12 -11.96875 C 12 -14.8125 9.671875 -16.859375 6.828125 -16.859375 L 1.1875 -16.859375 L 1.1875 -16.53125 L 1.5 -16.53125 C 1.9375 -16.515625 2.71875 -16.390625 2.71875 -15.953125 L 2.71875 -0.90625 C 2.71875 -0.5 1.9375 -0.375 1.5 -0.328125 Z M 6.828125 -7.40625 L 3.578125 -7.40625 L 3.578125 -15.953125 C 3.578125 -16.390625 4.375 -16.515625 4.796875 -16.53125 L 6.828125 -16.53125 C 9.203125 -16.53125 11.140625 -14.328125 11.140625 -11.96875 C 11.140625 -9.609375 9.203125 -7.40625 6.828125 -7.40625 Z M 6.828125 -7.40625 "/></g></g></g><g fill="#ffffff" fill-opacity="1"><g transform="translate(180.618088, 279.339398)"><g><path d="M 8.3125 0.359375 L 8.53125 0.359375 C 12.515625 0.359375 15.640625 -3.78125 15.640625 -8.3125 C 15.640625 -12.828125 12.46875 -16.984375 8.53125 -16.984375 L 8.3125 -16.984375 C 4.390625 -16.984375 1.1875 -12.90625 1.1875 -8.3125 C 1.1875 -3.796875 4.390625 0.359375 8.3125 0.359375 Z M 6.28125 -0.484375 C 3.828125 -1.671875 2.046875 -4.890625 2.046875 -8.3125 C 2.046875 -12.0625 4.203125 -15.546875 7.03125 -16.4375 C 7.484375 -16.578125 7.953125 -16.625 8.40625 -16.625 C 8.890625 -16.625 9.34375 -16.5625 9.8125 -16.4375 C 12.640625 -15.59375 14.765625 -12.0625 14.765625 -8.3125 C 14.765625 -4.890625 13.015625 -1.671875 10.5625 -0.484375 C 9.109375 0.140625 7.734375 0.140625 6.28125 -0.484375 Z M 6.28125 -0.484375 "/></g></g></g><g fill="#ffffff" fill-opacity="1"><g transform="translate(197.462146, 279.339398)"><g><path d="M 0.578125 -0.359375 L 0.578125 0 L 4.484375 0 L 4.484375 -0.359375 C 3.65625 -0.359375 2.96875 -0.5 2.96875 -0.9375 L 2.96875 -7.59375 L 6.234375 -7.59375 C 7.234375 -7.59375 8.546875 -6.140625 8.859375 -4.953125 C 9.40625 -2.890625 9.609375 -1.390625 11.390625 0 L 12.78125 0 L 12.78125 -0.359375 C 10.96875 -0.359375 10.203125 -3.21875 9.84375 -4.734375 C 9.40625 -6.5 8.40625 -7.078125 7.1875 -7.671875 C 9.5625 -8.046875 11.375 -9.8125 11.375 -12.328125 C 11.375 -15.171875 9.046875 -16.890625 6.21875 -16.890625 L 0.578125 -16.890625 L 0.578125 -16.53125 C 1.40625 -16.53125 2.109375 -16.390625 2.109375 -15.984375 L 2.109375 -0.9375 C 2.109375 -0.5 1.40625 -0.359375 0.578125 -0.359375 Z M 6.21875 -7.9375 L 2.96875 -7.9375 L 2.96875 -15.953125 C 2.96875 -16.390625 3.75 -16.515625 4.1875 -16.53125 L 6.21875 -16.53125 C 8.578125 -16.53125 10.515625 -14.6875 10.515625 -12.328125 C 10.515625 -9.9375 8.578125 -7.9375 6.21875 -7.9375 Z M 6.21875 -7.9375 "/></g></g></g><g fill="#ffffff" fill-opacity="1"><g transform="translate(211.797542, 279.339398)"><g><path d="M 1.1875 -0.328125 L 1.1875 0 L 5.109375 0 L 5.109375 -0.328125 C 4.34375 -0.328125 3.125 -0.40625 3.34375 -0.90625 L 3.328125 -0.90625 L 5.8125 -7.3125 L 12.296875 -7.3125 L 14.765625 -0.90625 C 14.953125 -0.4375 14.140625 -0.328125 13.375 -0.328125 L 13.375 0 L 17.296875 0 L 17.296875 -0.328125 C 16.609375 -0.328125 15.953125 -0.4375 15.71875 -0.84375 L 9.515625 -16.859375 L 9.515625 -16.890625 L 9.15625 -16.890625 L 2.9375 -0.890625 C 2.703125 -0.375 1.859375 -0.328125 1.1875 -0.328125 Z M 12.15625 -7.640625 L 5.953125 -7.640625 L 9.046875 -15.671875 Z M 12.15625 -7.640625 "/></g></g></g><g fill="#ffffff" fill-opacity="1"><g transform="translate(230.290194, 279.339398)"><g><path d="M 6.15625 -0.359375 L 6.15625 0 L 10.078125 0 L 10.078125 -0.359375 C 9.25 -0.359375 8.53125 -0.5 8.53125 -0.9375 L 8.53125 -16.53125 L 13.734375 -16.53125 C 14.265625 -16.53125 14.78125 -15.53125 14.84375 -15.4375 L 15.03125 -15.4375 L 15.03125 -16.890625 L 1.1875 -16.890625 L 1.1875 -15.4375 L 1.390625 -15.4375 C 1.4375 -15.53125 1.953125 -16.53125 2.484375 -16.53125 L 7.6875 -16.53125 L 7.6875 -0.9375 C 7.6875 -0.5 7 -0.359375 6.15625 -0.359375 Z M 6.15625 -0.359375 "/></g></g></g><g fill="#ffffff" fill-opacity="1"><g transform="translate(246.513065, 279.339398)"><g><path d="M 1.1875 -0.328125 L 1.1875 0 L 10.578125 0 L 11.515625 -1.5 L 11.109375 -1.5 C 11.03125 -1.359375 10.375 -0.328125 9.671875 -0.328125 L 3.5625 -0.328125 L 3.5625 -9.203125 L 9.203125 -9.203125 C 9.4375 -9.203125 9.703125 -8.625 9.703125 -8.625 L 9.859375 -8.625 L 9.859375 -10.125 L 9.703125 -10.125 C 9.703125 -10.125 9.4375 -9.5625 9.203125 -9.5625 L 3.5625 -9.5625 L 3.5625 -16.53125 L 9.15625 -16.53125 C 9.65625 -16.53125 10.203125 -15.53125 10.25 -15.4375 L 10.421875 -15.4375 L 10.421875 -16.890625 L 1.1875 -16.890625 L 1.1875 -16.53125 C 1.1875 -16.53125 2.703125 -16.53125 2.703125 -15.953125 L 2.703125 -0.90625 C 2.703125 -0.484375 1.90625 -0.359375 1.484375 -0.328125 Z M 1.1875 -0.328125 "/></g></g></g><g fill="#ffffff" fill-opacity="1"><g transform="translate(259.223776, 279.339398)"><g><path d="M 4.84375 0 L 4.84375 0.03125 L 6.90625 0.03125 C 10.671875 0.03125 13.765625 -3.796875 13.765625 -8.4375 C 13.765625 -13.0625 10.671875 -16.859375 6.90625 -16.859375 L 1.1875 -16.859375 L 1.1875 -16.53125 L 1.5 -16.53125 C 1.9375 -16.484375 2.71875 -16.359375 2.71875 -15.953125 L 2.71875 -0.90625 C 2.71875 -0.484375 1.9375 -0.359375 1.5 -0.328125 L 1.1875 -0.328125 L 1.1875 0 Z M 6.90625 -0.328125 L 4.796875 -0.328125 C 4.375 -0.359375 3.578125 -0.484375 3.578125 -0.90625 L 3.578125 -15.953125 C 3.578125 -16.359375 4.375 -16.484375 4.796875 -16.53125 L 4.84375 -16.53125 L 4.84375 -16.515625 L 6.90625 -16.515625 L 6.90625 -16.53125 C 10.21875 -16.484375 12.921875 -12.59375 12.921875 -8.4375 C 12.921875 -4.4375 10.4375 -0.71875 7.3125 -0.359375 C 7.171875 -0.359375 7.03125 -0.328125 6.90625 -0.328125 Z M 6.90625 -0.328125 "/></g></g></g></svg>